<?xml version="1.0" encoding="utf-8"?>
<svg
    viewBox="0 0 104.41204 72.959579"
    xmlns="http://www.w3.org/2000/svg"
    id="vox-splash-logo"
>
    <g transform="translate(-43.749756,-76.522829)">
        <path d="m 146.54816,76.582922 c -4.22333,-1.358186 -29.27383,20.64832 -41.73234,31.378968 -15.024674,12.80086 -29.157075,26.706 -44.897514,38.62968 8.87066,-19.67096 18.798794,-38.97515 29.310356,-57.863136 2.846256,-3.4039 4.738394,-11.007413 -1.873271,-11.157458 -9.373049,-0.409893 -18.325443,3.409353 -26.697595,7.203178 -5.857023,3.11471 -12.45979,6.214924 -15.940629,12.147062 -3.121298,2.884151 2.256981,8.020264 2.85409,3.01532 -4.492702,-3.206735 13.500279,-14.894023 32.63625,-19.833415 3.886179,-1.003104 11.786973,-0.573153 8.416024,5.199166 -11.173108,19.912723 -21.773336,40.168263 -31.233236,60.958553 -2.633288,3.31741 1.483374,4.17491 3.730005,2.09445 10.143686,-6.84365 19.09922,-15.27303 28.236003,-23.37532 15.417817,-13.72378 30.295327,-28.13519 46.804377,-40.571169 3.52768,-1.792303 7.67466,-6.999146 11.59929,-5.06584 0.94963,-1.906848 0.0827,-2.343738 -1.21181,-2.760039 z m -24.01985,43.367358 c -0.30369,-0.0382 -0.71325,0.004 -1.24644,0.15193 -5.36175,3.40197 -9.78824,8.12117 -14.06632,12.76873 -2.12067,-1.29036 0.58454,-7.38438 1.74459,-10.09964 1.7125,-4.06455 -4.12045,-1.2736 -2.57142,1.44539 -1.57438,3.14747 -1.4842,6.3942 -1.32446,9.83299 -1.24087,0.34642 -2.81505,0.68328 -3.5016,-0.18087 1.00518,-4.34872 -7.783112,-7.06597 -4.134112,-1.72289 2.45306,3.59191 -3.61172,10.29834 -6.391343,6.54327 -0.817381,-4.47919 2.795483,-8.18827 5.297353,-11.47372 2.88213,0.60108 4.879762,-4.93006 0.78548,-3.01222 -3.71711,2.86217 -6.813844,6.94957 -8.04447,11.51868 -1.698948,5.7654 5.54837,7.14281 8.45581,2.54506 2.541272,-4.01867 5.157412,-1.87456 7.483792,-2.87166 -2.07449,2.84911 -6.159502,7.05489 -4.0504,10.51719 0.70031,-3.47376 2.94973,-7.17624 5.7769,-9.78958 3.44749,1.70494 7.55429,0.51025 10.71563,-1.45521 1.96791,-0.43981 7.24563,-5.54002 2.52233,-3.01739 -3.48087,2.05875 -7.83213,5.12926 -11.95948,3.37034 3.3952,-4.04736 7.58807,-7.4957 11.55382,-11.02413 2.02656,0.42572 5.08016,-3.77916 2.95434,-4.04627 z" />
    </g>
</svg>
